# xmcd
#
# Track frame offsets:
#	150
#	14758
#	27424
#	36492
#	45390
#	56270
#	70324
#	79122
#	89605
#	101698
#
# Disc length: 1524 seconds
#
# Revision: 0
# Processed by: cddbd v1.5.2PL0 Copyright (c) Steve Scherf et al.
# Submitted via: EZCDAudioConverter 1.3.4.1
#
DISCID=8305f20a
DTITLE=Brian Capps - Sings Johnny Cash
DYEAR=1900
DGENRE=
TTITLE0=Ribbon of Steel
TTITLE1=I Walk the Line
TTITLE2=The Rebel - Johnny Yuma
TTITLE3=Guess Things Happen That Way
TTITLE4=Rock Island Line
TTITLE5=25 Minutes to Go
TTITLE6=I'm Free From the Chain Gang Now
TTITLE7=Greystone Chapel
TTITLE8=Folsom Prison Blues
TTITLE9=Southwind
EXTD=
EXTT0=
EXTT1=
EXTT2=
EXTT3=
EXTT4=
EXTT5=
EXTT6=
EXTT7=
EXTT8=
EXTT9=
PLAYORDER=
